<svg id="Layer_1" data-name="Layer 1" xmlns="http://www.w3.org/2000/svg" viewBox="0 0 155.79 155.63"><defs><style>.cls-1{fill:#fefefe;}.cls-2{fill:#c75305;}.cls-3{fill:#044da0;}.cls-4{fill:#074e9f;}.cls-5{fill:#c3550a;}.cls-6{fill:#373737;}.cls-7{fill:#3e3e3e;}.cls-8{fill:#4d6784;}.cls-9{fill:#fbfbfb;}</style></defs><title>KZILLA logo</title><path class="cls-1" d="M527.9,527.75H372.11V372.12H527.9Zm-31.8-79.36.85.14h0l1.15.27c.59.1,1.17.21,1.76.29.42.06.75.1.85-.52.43-2.79,1-5.56,1.36-8.35.32-2.58.45-5.19.61-7.79.22-3.59.47-7.17.55-10.76.12-5.9.12-11.8.16-17.7,0-.2,0-.4,0-.53-8.07,2.55-16.42,2.82-24.73,3.69v2.52q0,3.33,0,6.66v.57l-.14,2.14h7.33a.18.18,0,0,0,.11,0c0,4.33,0,8.66.07,13,0,1.57.08,3.15.12,4.72v1.14l0,4.47H460.7l0,.24,1.57.17.06,0h.07l.74.12.06,0h.07l.73.12.06,0h.07l.73.12.06,0H465l.73.12.06,0h.07l.73.12.06,0h.07l.73.12.06,0h.07l.73.12.06,0h.07l.73.12.07,0h.07l.73.12.07,0h.07l.73.12.07,0H471l.73.12.07,0h.07l.73.12.07,0h.07l.72.13.07,0h.07l.72.13.07,0h.07l.73.13.07,0h.07l.72.13.14,0,.72.13.14,0,.72.13.07,0h.07l.72.13.14,0,.72.13.14,0,.72.13.14,0,.72.13.14,0,.72.13.15,0,.72.13.15,0,.72.13.15,0,.72.13h.15l.71.13.15,0,.71.13h.15l.72.13h.15l.85.14h0l.85.14h0l.85.14h0l.85.14h0l.85.14h0l.85.14h0l.85.14h0l.85.14h0l.85.14h0l.85.14Zm-92.64,0h0l.85-.14h0l.85-.14h0l.85-.14h0l.85-.14h0l.85-.14h0l.85-.14h0l.85-.14h0l.85-.14h0l.85-.14h0l.85-.14h.15l.72-.13h.15l.72-.13H414l.72-.13h.15l.72-.13.14,0,.72-.13.15,0,.72-.13.15,0,.72-.13.14,0,.72-.13.14,0,.72-.13.14,0,.72-.13.14,0,.72-.13h.07l.07,0,.72-.13.14,0,.72-.13.14,0,.72-.13h.07l.07,0,.73-.13h.07l.07,0,.73-.13H426l.07,0,.72-.13h.07l.07,0,.73-.12h.07l.07,0,.73-.13h.07l.07,0,.73-.12h.07l.07,0,.73-.12h.07l.07,0,.73-.12h.07l.06,0,.73-.12h.07l.06,0,.73-.12h.07l.06,0,.74-.12h.07l.06,0,.74-.12h.07l.06,0,.73-.12h.07l.06,0,.73-.12h.07l.06,0,.74-.12h.07l.06,0,1.45-.17,0-.24H413.43l0-4.47v-1.14a3.16,3.16,0,0,0,.08-.48q0-2.44,0-4.88,0-6.17.07-12.35a.17.17,0,0,0,.11,0H421l-.14-2.14v-9.75c-8.33-.87-16.69-1.14-24.72-3.68a1.63,1.63,0,0,0,0,.18q.21,12.62.44,25.24c0,1.67.14,3.35.29,5,.25,2.78.5,5.56.86,8.33.28,2.13.76,4.24,1.09,6.37.1.62.43.58.85.52.59-.09,1.17-.19,1.76-.29l1.15-.27h0Zm81,20.17a1.42,1.42,0,0,0,2.13-.46c.19-.44.42-.86.57-1.32a.79.79,0,0,1,.93-.64c.74.05,1.49,0,2.23,0s1.73-.22,2.31.14.72,1.29,1,2a.67.67,0,0,0,.8.51,4.38,4.38,0,0,1,.72,0c.59,0,.71-.19.47-.73-1.49-3.26-3-6.52-4.44-9.8-.23-.52-.61-.45-1-.42s-.94-.22-1.21.44c-.45,1.11-1,2.18-1.47,3.27q-1.53,3.43-3.05,6.87c-.09-.17-.27-.35-.24-.5.12-.78-.24-.91-.93-.89-1.55,0-3.11,0-4.72,0v-.76q0-3.56,0-7.12c0-1.41-.06-1.48-1.44-1.31a.73.73,0,0,0-.49.5c0,3.31,0,6.62,0,9.93,0,.49.3.52.67.52,1.44,0,2.88,0,4.32,0C482.5,468.77,483.46,468.64,484.42,468.56ZM486.85,480a.1.1,0,0,0-.09,0H472.39l0,.12,6.64,2.11a1.79,1.79,0,0,1-.13.32c-1.68,2.28-3.35,4.56-5,6.82a113.47,113.47,0,0,1-10.27,11.91c-1.84,1.86-3.82,3.61-5.84,5.28a27.57,27.57,0,0,1-7.31,4.48,1.32,1.32,0,0,1-1.2-.06,57.53,57.53,0,0,1-16.9-13.17,76.4,76.4,0,0,1-9.19-12.57c-.44-.74-.83-1.51-1.26-2.3l8.12-2.82,0-.12H412.81a.1.1,0,0,0-.09,0c-.6,0-1.19,0-1.79,0s-1.1.08-1.65.13c.35.85.66,1.72,1.06,2.54a90.45,90.45,0,0,0,7.38,12.3,92.32,92.32,0,0,0,8,9.8,95.21,95.21,0,0,0,12.13,11,97.64,97.64,0,0,0,11.43,7.42,1,1,0,0,0,1.1,0c2.69-1.63,5.46-3.14,8.08-4.87a78.59,78.59,0,0,0,11.09-9.06,72.09,72.09,0,0,0,5.19-5.46c2.36-2.79,4.69-5.63,6.84-8.59a86.74,86.74,0,0,0,8.73-14.95c-.17-.09-.33-.26-.5-.26C488.81,480,487.83,480,486.85,480Zm-57.58-95.2c-.87-1-.85-2.36-1-3.69a4.91,4.91,0,0,0-.68.26,3.73,3.73,0,0,0-1.59,2.2,16.57,16.57,0,0,0-.63,6.86c0,.37.1.69-.3.93-2.18,1.33-3.08,3.45-3.51,5.84a3.56,3.56,0,0,0,.12,1l1-.51s.08,0,.14,0a4.87,4.87,0,0,1,0,.57,36.68,36.68,0,0,0-.17,6.88,31.14,31.14,0,0,0,2.06,9.55,21.35,21.35,0,0,0,6.81,9.22,27,27,0,0,0,6,3.4,30.16,30.16,0,0,0,11.87,2.6,40.56,40.56,0,0,0,6.54-.58,19,19,0,0,0,7.56-2.88,31,31,0,0,0,6.81-6.38,34,34,0,0,0,6-11.48,40.07,40.07,0,0,0,1.53-8.17c.12-1.32,0-2.66,0-4l-1.56,1.09a19.43,19.43,0,0,0-3-12l-.21,0-.43,1.6c-1.4-1.39-2.68-2.81-4.11-4.05a19.52,19.52,0,0,0-6.15-3.47,28.94,28.94,0,0,0-15.78-3,27.77,27.77,0,0,0-9.49,2.7A30.13,30.13,0,0,0,429.27,384.79ZM431.84,465c-1.35-2.28-2.66-4.4-3.87-6.57-.42-.76-1-.63-1.59-.56s-.35.65-.35,1c0,2.93,0,5.85,0,8.78,0,1.17,0,1.15,1.18,1.16.53,0,.72-.16.71-.7,0-1.63,0-3.26,0-4.89v-1.09c1.16,1.63,2.16,3.28,3.15,4.94.43.72,1.09.72,1.52,0l2.75-4.63c.1-.16.22-.31.33-.46l.13.06v6.77a7.32,7.32,0,0,1,.91,0c.7.09,1-.14.94-.9-.06-2,0-4,0-6v-3.94c-1.48-.24-1.5-.24-2.17.91l-1.13,1.92Zm-10.43.2c1.24-.8,1.69-1.31,2-2.2a3.77,3.77,0,0,0-3.45-5.06c-1.5-.12-3,0-4.52-.1-.61,0-.77.2-.77.79,0,3,0,5.94,0,8.92,0,1.3,0,1.27,1.28,1.27.55,0,.7-.2.68-.72,0-.82,0-1.65,0-2.47,2.78-.19,2.78-.19,4.32,2a1.6,1.6,0,0,1,.16.23,1.52,1.52,0,0,0,1.84,1c.24,0,.48-.12.72-.19a4,4,0,0,0-.3-.69C422.7,467,422.06,466.12,421.41,465.2Zm22.87-1c1.1,1.27,2.2,2.39,3.11,3.64a2.28,2.28,0,0,0,2.41.95c.15,0,.35-.09.41-.19s0-.31-.12-.42c-.27-.36-.58-.7-.87-1.05l-3.61-4.38a3.07,3.07,0,0,0,.39-.29l3.72-3.91c.25-.27.5-.63-.1-.68-.84-.07-1.75-.21-2.31.71a2.45,2.45,0,0,1-.44.47l-4.19,3.9c0-1.28,0-2.81,0-4.33,0-.84-.45-.77-1-.78s-1,0-1,.8c0,2.95,0,5.9,0,8.85,0,1.39,0,1.38,1.37,1.32.43,0,.6-.16.59-.6,0-.62,0-1.25,0-1.87a1.12,1.12,0,0,1,.23-.63C443.32,465.2,443.79,464.72,444.27,464.2Zm13-4.57-2.86,3.55c-1.05,1.31-2.15,2.58-3.14,3.93a2.63,2.63,0,0,0-.24,1.47,2.11,2.11,0,0,0,.95.21c2.49,0,5,0,7.48,0,.74,0,.72-.37.73-.9s0-.9-.75-.88c-1.68,0-3.36,0-5,0-.2,0-.39,0-.7-.06l1.51-1.89c1.47-1.83,2.92-3.68,4.42-5.49a1.47,1.47,0,0,0,.23-1.54c-.07-.18-.66-.23-1-.23-2.33,0-4.65,0-7,0-.7,0-.85.23-.83.87s0,1,.82,1C453.66,459.59,455.41,459.63,457.32,459.63Zm-45.19-.83a6.37,6.37,0,0,0-6.49-.34,2.87,2.87,0,0,0-1.34,2.76,2.6,2.6,0,0,0,1.74,2.34,16.27,16.27,0,0,0,1.7.55c.69.21,1.4.34,2.06.61.84.33,1.12,1.14.61,1.71a2.2,2.2,0,0,1-1.14.66,5.2,5.2,0,0,1-3.92-.76c-.28-.18-.63-.52-.81,0s-.92.89-.18,1.48a7,7,0,0,0,6.7.5,2.87,2.87,0,0,0,1.49-2.82,2.6,2.6,0,0,0-1.83-2.35c-.78-.3-1.6-.47-2.4-.72a7.92,7.92,0,0,1-1.6-.61,1,1,0,0,1-.15-1.69,2,2,0,0,1,1.13-.53,9.42,9.42,0,0,1,2.61.28c1.31.38,1.29.45,1.79-.84A.93.93,0,0,0,412.13,458.8Zm57,8.25v-.52c0-2.66,0-5.32,0-8,0-.52-.16-.77-.7-.72a3,3,0,0,1-.57,0c-.54-.06-.71.17-.7.7q0,4.78,0,9.56c0,.52.15.72.7.72,2.08,0,4.17,0,6.25,0,.81,0,.64-.49.67-.94s0-.86-.69-.84C472.49,467.09,470.86,467.05,469.16,467.05Zm-37.39,25.81H433c0-1,0-1.87,0-2.77s.6-1.65,1.43-1.65,1.22.54,1.23,1.61,0,1.86,0,2.81h1.25c0-1,0-1.87,0-2.78s.62-1.65,1.45-1.64,1.22.57,1.23,1.62,0,1.86,0,2.82h1.2c0-1.24.05-2.46,0-3.68a1.83,1.83,0,0,0-1.83-1.77,2.94,2.94,0,0,0-2.43.69,3,3,0,0,0-3.46-.33c-.32-.6-.83-.25-1.3-.29Zm32.35-29.55c0-1.56,0-3.12,0-4.67,0-.81-.39-.82-1-.82s-1,0-1,.84c0,3.09,0,6.18,0,9.27,0,.71.22,1,.9.87a1.33,1.33,0,0,1,.36,0c.58.08.74-.19.72-.75C464.09,466.48,464.12,464.9,464.12,463.32ZM467.6,493c0-1.39.07-2.63,0-3.87a2.1,2.1,0,0,0-.73-1.31,3.54,3.54,0,0,0-3.93.36c.19.6.4,1,1.14.51a2.33,2.33,0,0,1,1.24-.25c.73,0,1.07.46,1,1.32-.71,0-1.42-.06-2.13,0a1.57,1.57,0,0,0,0,3.12,11.92,11.92,0,0,0,2-.15,1.11,1.11,0,0,1,.3,0Zm-25.52-2.81a2.9,2.9,0,1,0,2.95-2.77A2.65,2.65,0,0,0,442.08,490.19ZM453.21,492h-3c.93-1.16,1.79-2.18,2.59-3.24a5.69,5.69,0,0,0,.52-1.19h-4.69v.91h2.89c-.94,1.17-1.81,2.22-2.63,3.3a5,5,0,0,0-.47,1.15h4.8Zm9.2-5.84c-.7-.25-1,0-1.19.63-.66,2-1.4,4-2.1,6-.1.28-.16.57-.26.89h.91Zm-2.74,0c-.7-.25-1,0-1.19.63-.66,2-1.4,4-2.1,6-.1.28-.16.57-.26.9H457Zm-4,2.1c0-.48-.2-.76-.73-.78s-.89.17-.9.76.29.74.77.75A.72.72,0,0,0,455.69,488.21ZM454,492.38c.17.14.41.48.73.57a.68.68,0,0,0,.93-.62c0-.45-.09-.81-.63-.85S454.13,491.53,454,492.38Z" transform="translate(-372.11 -372.12)"/><path class="cls-2" d="M462.44,379.56a19.52,19.52,0,0,1,6.15,3.47c1.43,1.24,2.71,2.66,4.11,4.05l.43-1.6.21,0a19.43,19.43,0,0,1,3,12l1.56-1.09c0,1.39.1,2.72,0,4a40.07,40.07,0,0,1-1.53,8.17,34,34,0,0,1-6,11.48,31,31,0,0,1-6.81,6.38,19,19,0,0,1-7.56,2.88,40.56,40.56,0,0,1-6.54.58,30.16,30.16,0,0,1-11.87-2.6,27,27,0,0,1-6-3.4,21.35,21.35,0,0,1-6.81-9.22,31.14,31.14,0,0,1-2.06-9.55,36.68,36.68,0,0,1,.17-6.88,4.87,4.87,0,0,0,0-.57c-.06,0-.11,0-.14,0l-1,.51a3.56,3.56,0,0,1-.12-1c.43-2.38,1.32-4.51,3.51-5.84.4-.24.33-.56.3-.93a16.57,16.57,0,0,1,.63-6.86,3.73,3.73,0,0,1,1.59-2.2,4.91,4.91,0,0,1,.68-.26c.2,1.33.17,2.64,1,3.69a1.56,1.56,0,0,0,2.22,1.28,1.54,1.54,0,0,1,.35-.07c1.67-.13,3.34-.23,5-.4a2,2,0,0,0,1.11-.47,7.57,7.57,0,0,1,3.23-1.88c.84-.21,1.72-.29,2.59-.43l.06.25c-.36.29-.84.51-1.05.89a28.6,28.6,0,0,0-1.74,3.49,2.25,2.25,0,0,0,1,2.89,11.12,11.12,0,0,0,5.41,2c.53.05.63.3.52.78a3.67,3.67,0,0,1-1.7,2c-.84.62-1.79,1.1-2.71,1.65a5.18,5.18,0,0,1,.92,4c-.09.6-.24.74-.87.58a20.24,20.24,0,0,0-3.44-.57c-1-.07-1.5.49-1.33,1.22a6.58,6.58,0,0,0,4.8,5.32,4.42,4.42,0,0,0,3.65-.3,10.82,10.82,0,0,1,3.44-1.25,4.13,4.13,0,0,1,4.43,2.71,9.61,9.61,0,0,0-5.54,3.12,4.56,4.56,0,0,1-2.78,1.5c-1.21.22-2.44.28-3.7.42a19.75,19.75,0,0,0,7.5,4,9.29,9.29,0,0,0,6.55-.59,11.92,11.92,0,0,0,5-5.12c.39-.71.74-1.44,1.11-2.16l.22,0,.33,3.18a21.58,21.58,0,0,0,1.22-2.14,16.58,16.58,0,0,0,1-7.1c0-1-.1-1.93-.15-3,1.23.36,1.49,1.41,2,2.38,1.46-3.48.57-6.78-.37-10.07l.16-.16,1.88.73a10.28,10.28,0,0,0-4-6.61,19.32,19.32,0,0,0-5.74-2.78c-.21-.07-.37-.31-.56-.47.19-.19.34-.47.57-.54a13.34,13.34,0,0,1,1.6-.33c-.89-1.91-2.79-2-4.33-2.76a11.48,11.48,0,0,1,2.26-.39C460.43,379.61,461.44,379.6,462.44,379.56Z" transform="translate(-372.11 -372.12)"/><path class="cls-3" d="M462.44,379.56c-1,0-2,0-3,.12a11.48,11.48,0,0,0-2.26.39c1.53.76,3.44.85,4.33,2.76a13.34,13.34,0,0,0-1.6.33c-.22.08-.38.36-.57.54.18.16.34.4.56.47a19.32,19.32,0,0,1,5.74,2.78,10.28,10.28,0,0,1,4,6.61l-1.88-.73-.16.16c.94,3.3,1.83,6.59.37,10.07-.5-1-.76-2-2-2.38.05,1,.12,2,.15,3a16.58,16.58,0,0,1-1,7.1,21.58,21.58,0,0,1-1.22,2.14l-.33-3.18-.22,0c-.37.72-.72,1.45-1.11,2.16a11.92,11.92,0,0,1-5,5.12,9.29,9.29,0,0,1-6.55.59,19.75,19.75,0,0,1-7.5-4c1.26-.14,2.49-.2,3.7-.42a4.56,4.56,0,0,0,2.78-1.5,9.61,9.61,0,0,1,5.54-3.12,4.13,4.13,0,0,0-4.43-2.71,10.82,10.82,0,0,0-3.44,1.25,4.42,4.42,0,0,1-3.65.3,6.58,6.58,0,0,1-4.8-5.32c-.17-.73.35-1.29,1.33-1.22a20.24,20.24,0,0,1,3.44.57c.63.15.78,0,.87-.58a5.18,5.18,0,0,0-.92-4c.92-.55,1.87-1,2.71-1.65a3.67,3.67,0,0,0,1.7-2c.11-.47,0-.72-.52-.78a11.12,11.12,0,0,1-5.41-2,2.25,2.25,0,0,1-1-2.89,28.6,28.6,0,0,1,1.74-3.49c.21-.37.69-.6,1.05-.89l-.06-.25c-.86.14-1.74.22-2.59.43a7.57,7.57,0,0,0-3.23,1.88,2,2,0,0,1-1.11.47c-1.66.17-3.33.27-5,.4a1.54,1.54,0,0,0-.35.07,1.56,1.56,0,0,1-2.22-1.28,30.13,30.13,0,0,1,7.9-5.53,27.77,27.77,0,0,1,9.49-2.7A28.94,28.94,0,0,1,462.44,379.56Z" transform="translate(-372.11 -372.12)"/><path class="cls-4" d="M412.81,480h17.12l0,.12-8.12,2.82c.43.79.82,1.56,1.26,2.3a76.4,76.4,0,0,0,9.19,12.57A57.53,57.53,0,0,0,449.21,511a1.32,1.32,0,0,0,1.2.06,27.57,27.57,0,0,0,7.31-4.48c2-1.68,4-3.42,5.84-5.28a113.47,113.47,0,0,0,10.27-11.91c1.69-2.27,3.36-4.55,5-6.82a1.79,1.79,0,0,0,.13-.32l-6.64-2.11,0-.12h14.37c-.89,1.94-1.69,3.94-2.7,5.82a64.15,64.15,0,0,1-5.75,9.06c-1.74,2.25-3.44,4.54-5.38,6.6a104.31,104.31,0,0,1-7.55,7.23c-2.42,2.1-5,4-7.6,5.89-2.2,1.55-4.56,2.88-6.86,4.3a1.77,1.77,0,0,1-2.11.1c-1.66-1.09-3.42-2-5.07-3.13-1.88-1.27-3.74-2.59-5.52-4-2-1.6-4.07-3.21-5.93-5a80,80,0,0,1-8.09-8.66c-1.69-2.19-3.4-4.38-5-6.66a70.87,70.87,0,0,1-5.74-10C413.26,481,413,480.49,412.81,480Z" transform="translate(-372.11 -372.12)"/><path class="cls-3" d="M471,444.23H471l-.07,0-.73-.12h-.07l-.07,0-.73-.12h-.07l-.07,0-.73-.12h-.07l-.06,0-.73-.12h-.07l-.06,0-.73-.12h-.07l-.06,0-.73-.12h-.07l-.06,0-.73-.12h-.07l-.06,0-.73-.12H464l-.06,0-.73-.12h-.07l-.06,0-.74-.12h-.07l-.06,0-.58-.26h23.67a4.64,4.64,0,0,0,.81-.14h0l0-4.47v-1.14a4.53,4.53,0,0,0,.11-.76c0-1.87-.09-3.73-.1-5.6,0-3.52,0-7,0-10.57a4.07,4.07,0,0,0-.16-.8.18.18,0,0,1-.11,0,5.28,5.28,0,0,0-.76-.11h-5.52c-.25,0-.5,0-.73,0l-.19-2v-.57c0-.68.1-1.36.11-2,0-1.45,0-2.9,0-4.43.44,0,.8,0,1.15,0,.68,0,1.36-.1,2-.15s1.28-.14,1.92-.23l14.16-2c.83-.12,1.67-.26,2.5-.39a2.06,2.06,0,0,1,.06.32c-.07,5.05-.07,10.11-.24,15.16-.16,4.83-.46,9.65-.78,14.48a76.51,76.51,0,0,1-1.5,11.27l-1.14.26h0l-.85-.14h0l-.85-.14h0l-.85-.14h0l-.85-.14h0l-.85-.14h0l-.85-.14h0l-.85-.14h0l-.85-.14h0l-.85-.14h0l-.85-.14h0l-.85-.14h-.15l-.72-.13h-.15l-.71-.13-.15,0-.71-.13h-.15l-.72-.13-.15,0-.72-.13-.15,0-.72-.13-.15,0-.72-.13-.14,0-.72-.13-.14,0-.72-.13-.14,0-.72-.13-.14,0-.72-.13h-.07l-.07,0-.72-.13-.14,0-.72-.13-.14,0-.72-.13h-.07l-.07,0-.73-.13h-.07l-.07,0-.72-.13h-.07l-.07,0-.72-.13h-.07l-.07,0-.73-.12h-.07l-.07,0Z" transform="translate(-372.11 -372.12)"/><path class="cls-3" d="M417.44,446.08l-.15,0-.72.13-.15,0-.72.13-.14,0-.72.13h-.15l-.72.13h-.15l-.72.13H413l-.72.13h-.15l-.85.14h0l-.85.14h0l-.85.14h0l-.85.14h0l-.85.14h0l-.85.14h0l-.85.14h0l-.85.14h0l-.85.14h0l-.85.14h0l-.85.14h0l-1.14-.28a9.94,9.94,0,0,1-.21-1c-.53-4.48-1.17-9-1.56-13.45-.35-4-.49-8-.59-12.05-.12-4.67-.11-9.35-.16-14,0-.21,0-.42,0-.71,1.84.3,3.62.61,5.4.88,2.81.43,5.62.85,8.43,1.23,1.58.22,3.18.36,4.77.53l3.19.24c0,1.91,0,3.77,0,5.63a5.25,5.25,0,0,0,.11.76v.57l-.2,2h-6.24a5.28,5.28,0,0,0-.76.11.17.17,0,0,1-.11,0,2.85,2.85,0,0,0-.16.65q-.08,8.12-.14,16.23a5.62,5.62,0,0,0,.11.83v1.14c0,1.34-.08,2.68-.11,4a1.48,1.48,0,0,0,.14.45h0a4.64,4.64,0,0,0,.81.14h23.69l-.61.26-.06,0h-.07l-.74.12-.06,0h-.07l-.73.12-.06,0h-.07l-.73.12-.06,0h-.07l-.73.12-.06,0h-.07l-.74.12-.06,0h-.07l-.73.12-.06,0H432l-.73.12-.06,0h-.07l-.73.12-.07,0h-.07l-.73.12-.07,0h-.07l-.73.12-.07,0h-.07l-.73.13-.07,0h-.07l-.73.12-.07,0h-.07l-.72.13-.07,0h-.07l-.73.13-.07,0h-.07l-.73.13-.07,0h-.07l-.72.13-.14,0-.72.13-.14,0-.72.13-.07,0h-.07l-.72.13-.14,0-.72.13-.14,0-.72.13-.14,0-.72.13-.14,0Z" transform="translate(-372.11 -372.12)"/><path class="cls-5" d="M412.81,480c.23.5.45,1,.68,1.49a70.87,70.87,0,0,0,5.74,10c1.57,2.28,3.28,4.47,5,6.66a80,80,0,0,0,8.09,8.66c1.86,1.79,3.9,3.4,5.93,5,1.78,1.4,3.64,2.73,5.52,4,1.65,1.11,3.4,2,5.07,3.13a1.77,1.77,0,0,0,2.11-.1c2.3-1.41,4.66-2.74,6.86-4.3,2.62-1.85,5.19-3.79,7.6-5.89a104.31,104.31,0,0,0,7.55-7.23c1.94-2.06,3.65-4.35,5.38-6.6a64.15,64.15,0,0,0,5.75-9.06c1-1.88,1.8-3.88,2.7-5.82a.1.1,0,0,1,.09,0c.91,0,1.82,0,2.73.06a3,3,0,0,1,.7.21,86.74,86.74,0,0,1-8.73,14.95c-2.15,3-4.48,5.8-6.84,8.59a72.09,72.09,0,0,1-5.19,5.46,78.59,78.59,0,0,1-11.09,9.06c-2.63,1.73-5.39,3.24-8.08,4.87a1,1,0,0,1-1.1,0,97.64,97.64,0,0,1-11.43-7.42,95.21,95.21,0,0,1-12.13-11,92.32,92.32,0,0,1-8-9.8,90.45,90.45,0,0,1-7.38-12.3c-.4-.82-.71-1.69-1.06-2.54l3.44-.13A.1.1,0,0,1,412.81,480Z" transform="translate(-372.11 -372.12)"/><path class="cls-5" d="M417.58,409.68c-1.59-.17-3.19-.32-4.77-.53-2.81-.38-5.62-.8-8.43-1.23-1.78-.27-3.56-.58-5.4-.88,0,.29,0,.5,0,.71,0,4.68,0,9.36.16,14,.11,4,.25,8,.59,12.05.39,4.49,1,9,1.56,13.45a9.93,9.93,0,0,0,.21,1v.55c-.59.1-1.17.21-1.76.29-.42.06-.75.1-.85-.52-.33-2.13-.81-4.24-1.09-6.37-.36-2.77-.61-5.55-.86-8.33-.15-1.67-.26-3.34-.29-5q-.25-12.62-.44-25.24a1.63,1.63,0,0,1,0-.18c8,2.54,16.39,2.81,24.72,3.68,0,.85,0,1.69,0,2.52Z" transform="translate(-372.11 -372.12)"/><path class="cls-5" d="M498.11,448.27a76.51,76.51,0,0,0,1.5-11.27c.31-4.82.61-9.65.78-14.48.17-5.05.17-10.11.24-15.16a2.06,2.06,0,0,0-.06-.32c-.84.13-1.67.27-2.5.39l-14.16,2c-.64.09-1.28.16-1.92.23l-3.31,0v-2.52c8.31-.87,16.66-1.14,24.73-3.69,0,.13,0,.33,0,.53,0,5.9,0,11.8-.16,17.7-.08,3.59-.33,7.18-.55,10.76-.16,2.6-.29,5.21-.61,7.79-.35,2.8-.93,5.56-1.36,8.35-.1.62-.43.59-.85.52-.59-.09-1.17-.19-1.76-.29Q498.12,448.54,498.11,448.27Z" transform="translate(-372.11 -372.12)"/><path class="cls-6" d="M431.84,465l2.48-4.25,1.13-1.92c.67-1.15.69-1.15,2.17-.91v3.94c0,2,0,4,0,6,0,.76-.24,1-.94.9a7.32,7.32,0,0,0-.91,0V462l-.13-.06c-.11.15-.23.3-.33.46l-2.75,4.63c-.43.72-1.08.72-1.52,0-1-1.65-2-3.31-3.15-4.94v1.09c0,1.63,0,3.26,0,4.89,0,.54-.18.71-.71.7-1.18,0-1.18,0-1.18-1.16,0-2.93,0-5.85,0-8.78,0-.35-.26-.92.35-1s1.17-.2,1.59.56C429.18,460.61,430.49,462.72,431.84,465Z" transform="translate(-372.11 -372.12)"/><path class="cls-6" d="M421.41,465.2c.65.92,1.29,1.82,1.92,2.72a4,4,0,0,1,.3.69c-.24.06-.48.14-.72.19a1.52,1.52,0,0,1-1.84-1,1.6,1.6,0,0,0-.16-.23c-1.53-2.18-1.53-2.18-4.32-2,0,.82,0,1.65,0,2.47,0,.52-.13.72-.68.72-1.28,0-1.28,0-1.28-1.27,0-3,0-5.94,0-8.92,0-.58.16-.81.77-.79,1.51.06,3,0,4.52.1a3.77,3.77,0,0,1,3.45,5.06C423.1,463.89,422.65,464.4,421.41,465.2Zm-4.77-5.55v4.18c1,0,2,.06,3,0a2.08,2.08,0,0,0,0-4.16C418.62,459.59,417.64,459.65,416.63,459.65Z" transform="translate(-372.11 -372.12)"/><path class="cls-6" d="M444.27,464.2c-.48.52-1,1-1.38,1.51a1.12,1.12,0,0,0-.23.63c0,.62,0,1.25,0,1.87,0,.44-.16.58-.59.6-1.37.05-1.37.07-1.37-1.32,0-3,0-5.9,0-8.85,0-.83.4-.81,1-.8s1-.06,1,.78c-.06,1.52,0,3,0,4.33l4.19-3.9a2.45,2.45,0,0,0,.44-.47c.56-.92,1.47-.78,2.31-.71.61.05.36.41.1.68L446,462.45a3.07,3.07,0,0,1-.39.29l3.61,4.38c.29.35.59.69.87,1.05.09.11.17.32.12.42s-.26.18-.41.19a2.28,2.28,0,0,1-2.41-.95C446.48,466.58,445.38,465.47,444.27,464.2Z" transform="translate(-372.11 -372.12)"/><path class="cls-7" d="M457.32,459.63c-1.91,0-3.66,0-5.4,0-.81,0-.8-.37-.82-1s.14-.88.83-.87c2.33,0,4.65,0,7,0,.35,0,.94,0,1,.23a1.47,1.47,0,0,1-.23,1.54c-1.5,1.81-3,3.65-4.42,5.49L453.76,467c.3,0,.5.06.7.06,1.68,0,3.36,0,5,0,.72,0,.75.33.75.88s0,.91-.73.9c-2.49,0-5,0-7.48,0a2.11,2.11,0,0,1-.95-.21,2.63,2.63,0,0,1,.24-1.47c1-1.35,2.08-2.63,3.14-3.93Z" transform="translate(-372.11 -372.12)"/><path class="cls-6" d="M484.42,468.43q1.53-3.44,3.05-6.87c.49-1.09,1-2.16,1.47-3.27.27-.66.78-.41,1.21-.44s.77-.1,1,.42c1.46,3.27,2.95,6.54,4.44,9.8.24.53.12.76-.47.73a4.38,4.38,0,0,0-.72,0,.67.67,0,0,1-.8-.51c-.28-.71-.46-1.66-1-2s-1.53-.13-2.31-.14-1.49,0-2.23,0a.79.79,0,0,0-.93.64c-.15.45-.38.88-.57,1.32a1.42,1.42,0,0,1-2.13.46A.75.75,0,0,0,484.42,468.43Zm7.53-3.9c-.33-.78-.63-1.48-.93-2.17s-.62-1.36-1-2.16l-1,2.23-.91,2.1Z" transform="translate(-372.11 -372.12)"/><path class="cls-6" d="M412.13,458.8a.93.93,0,0,1,0,.19c-.5,1.29-.48,1.22-1.79.84a9.42,9.42,0,0,0-2.61-.28,2,2,0,0,0-1.13.53,1,1,0,0,0,.15,1.69,7.92,7.92,0,0,0,1.6.61c.8.25,1.62.42,2.4.72a2.6,2.6,0,0,1,1.83,2.35,2.87,2.87,0,0,1-1.49,2.82,7,7,0,0,1-6.7-.5c-.74-.59,0-1,.18-1.48s.53-.14.81,0a5.2,5.2,0,0,0,3.92.76,2.2,2.2,0,0,0,1.14-.66c.51-.57.22-1.38-.61-1.71-.66-.26-1.38-.4-2.06-.61a16.27,16.27,0,0,1-1.7-.55,2.6,2.6,0,0,1-1.74-2.34,2.87,2.87,0,0,1,1.34-2.76A6.37,6.37,0,0,1,412.13,458.8Z" transform="translate(-372.11 -372.12)"/><path class="cls-7" d="M484.42,468.43a.75.75,0,0,1,0,.13c-1,.08-1.92.2-2.88.23-1.44,0-2.88,0-4.32,0-.37,0-.67,0-.67-.52,0-3.31,0-6.62,0-9.93a.73.73,0,0,1,.49-.5c1.39-.17,1.44-.1,1.44,1.31q0,3.56,0,7.12v.76c1.62,0,3.17,0,4.72,0,.69,0,1.06.11.93.89C484.15,468.08,484.33,468.26,484.42,468.43Z" transform="translate(-372.11 -372.12)"/><path class="cls-7" d="M469.16,467.05c1.71,0,3.33,0,5,0,.7,0,.72.33.69.84s.15,1-.67.94c-2.08,0-4.17,0-6.25,0-.54,0-.7-.2-.7-.72q0-4.78,0-9.56c0-.53.17-.76.7-.7a3,3,0,0,0,.57,0c.53,0,.7.19.7.72,0,2.66,0,5.32,0,8Z" transform="translate(-372.11 -372.12)"/><path class="cls-6" d="M431.76,492.87V487.5c.47,0,1-.31,1.3.29a3,3,0,0,1,3.46.33,2.94,2.94,0,0,1,2.43-.69,1.83,1.83,0,0,1,1.83,1.77c.07,1.21,0,2.44,0,3.68h-1.2c0-1,0-1.89,0-2.82s-.44-1.61-1.23-1.62-1.42.63-1.45,1.64,0,1.82,0,2.78h-1.25c0-.95,0-1.88,0-2.81s-.43-1.6-1.23-1.61-1.41.64-1.43,1.65,0,1.82,0,2.77Z" transform="translate(-372.11 -372.12)"/><path class="cls-7" d="M464.12,463.32c0,1.58,0,3.16,0,4.74,0,.56-.14.82-.72.75a1.33,1.33,0,0,0-.36,0c-.68.1-.91-.16-.9-.87,0-3.09,0-6.18,0-9.27,0-.85.41-.84,1-.84s1,0,1,.82C464.07,460.2,464.12,461.76,464.12,463.32Z" transform="translate(-372.11 -372.12)"/><path class="cls-6" d="M467.6,493l-1.19-.28a1.11,1.11,0,0,0-.3,0,11.92,11.92,0,0,1-2,.15,1.57,1.57,0,0,1,0-3.12c.71-.07,1.42,0,2.13,0,.06-.86-.28-1.31-1-1.32a2.33,2.33,0,0,0-1.24.25c-.74.48-1,.08-1.14-.51a3.54,3.54,0,0,1,3.93-.36,2.1,2.1,0,0,1,.73,1.31C467.67,490.36,467.6,491.61,467.6,493Zm-1.26-2.5a11.87,11.87,0,0,0-1.75.16.89.89,0,0,0-.56.62,1,1,0,0,0,.49.68A1.32,1.32,0,0,0,466.34,490.49Z" transform="translate(-372.11 -372.12)"/><path class="cls-6" d="M442.08,490.19a2.9,2.9,0,0,1,5.79,0,2.9,2.9,0,0,1-5.79,0Zm2.87-1.76a1.67,1.67,0,0,0-1.6,1.77A1.71,1.71,0,0,0,445,492a1.8,1.8,0,0,0,1.59-1.82A1.74,1.74,0,0,0,445,488.43Z" transform="translate(-372.11 -372.12)"/><path class="cls-7" d="M453.21,492v.93h-4.8a5,5,0,0,1,.47-1.15c.82-1.08,1.69-2.13,2.63-3.3h-2.89v-.91h4.69a5.69,5.69,0,0,1-.52,1.19c-.8,1.06-1.66,2.08-2.59,3.24Z" transform="translate(-372.11 -372.12)"/><path class="cls-7" d="M462.41,486.11l-2.64,7.54h-.91c.09-.33.16-.62.26-.89.7-2,1.44-4,2.1-6C461.43,486.1,461.71,485.86,462.41,486.11Z" transform="translate(-372.11 -372.12)"/><path class="cls-7" d="M459.68,486.11,457,493.64h-.91c.09-.33.16-.62.26-.9.7-2,1.44-4,2.1-6C458.69,486.1,459,485.86,459.68,486.11Z" transform="translate(-372.11 -372.12)"/><path class="cls-8" d="M486.15,442.36a4.64,4.64,0,0,1-.81.14H461.67l.58.26-1.57-.17,0-.24Z" transform="translate(-372.11 -372.12)"/><path class="cls-8" d="M437.32,442.77l.61-.26H414.23a4.64,4.64,0,0,1-.81-.14h25.32l0,.24Z" transform="translate(-372.11 -372.12)"/><path class="cls-8" d="M486,419a4.07,4.07,0,0,1,.16.8c0,3.52,0,7,0,10.57,0,1.87.08,3.73.1,5.6a4.53,4.53,0,0,1-.11.76c0-1.57-.1-3.15-.12-4.72C486,427.7,486,423.37,486,419Z" transform="translate(-372.11 -372.12)"/><path class="cls-8" d="M413.41,436.75a5.62,5.62,0,0,1-.11-.83q.06-8.12.14-16.23a2.85,2.85,0,0,1,.16-.65q0,6.17-.07,12.35,0,2.44,0,4.88A3.16,3.16,0,0,1,413.41,436.75Z" transform="translate(-372.11 -372.12)"/><path class="cls-6" d="M455.69,488.21a.72.72,0,0,1-.86.74c-.48,0-.77-.25-.77-.75s.35-.77.9-.76S455.68,487.72,455.69,488.21Z" transform="translate(-372.11 -372.12)"/><path class="cls-6" d="M454,492.38c.11-.85.52-.95,1-.91s.67.4.63.85a.68.68,0,0,1-.93.62C454.44,492.86,454.19,492.52,454,492.38Z" transform="translate(-372.11 -372.12)"/><path class="cls-8" d="M413.7,419a5.28,5.28,0,0,1,.76-.11h6.24l.2-2L421,419Z" transform="translate(-372.11 -372.12)"/><path class="cls-8" d="M478.67,416.88l.19,2c.23,0,.48,0,.73,0h5.52a5.28,5.28,0,0,1,.76.11h-7.33Z" transform="translate(-372.11 -372.12)"/><path class="cls-8" d="M417.58,409.68l3.31,0q0,3.33,0,6.66a5.25,5.25,0,0,1-.11-.76c0-1.86,0-3.73,0-5.63Z" transform="translate(-372.11 -372.12)"/><path class="cls-8" d="M478.68,409.65l3.31,0c-.68.05-1.36.11-2,.15-.35,0-.7,0-1.15,0,0,1.53,0,3,0,4.43,0,.68-.07,1.37-.11,2Q478.68,413,478.68,409.65Z" transform="translate(-372.11 -372.12)"/><path class="cls-8" d="M413.43,442.37a1.48,1.48,0,0,1-.14-.45c0-1.34.07-2.68.11-4Z" transform="translate(-372.11 -372.12)"/><path class="cls-8" d="M486.17,437.9l0,4.47Z" transform="translate(-372.11 -372.12)"/><path class="cls-4" d="M490.28,480.26a3,3,0,0,0-.7-.21c-.91,0-1.82,0-2.73-.06,1,0,2,0,2.94,0C490,480,490.12,480.17,490.28,480.26Z" transform="translate(-372.11 -372.12)"/><path class="cls-4" d="M412.72,480l-3.44.13c.55,0,1.1-.11,1.65-.13S412.12,480,412.72,480Z" transform="translate(-372.11 -372.12)"/><path class="cls-8" d="M401.45,448.81v-.55l1.14.28Z" transform="translate(-372.11 -372.12)"/><path class="cls-8" d="M498.11,448.27q0,.27,0,.54l-1.15-.27Z" transform="translate(-372.11 -372.12)"/><path class="cls-8" d="M487.46,447l.85.14Z" transform="translate(-372.11 -372.12)"/><path class="cls-8" d="M410.39,447.24l.85-.14Z" transform="translate(-372.11 -372.12)"/><path class="cls-8" d="M488.33,447.1l.85.14Z" transform="translate(-372.11 -372.12)"/><path class="cls-8" d="M411.25,447.1l.85-.14Z" transform="translate(-372.11 -372.12)"/><path class="cls-8" d="M409.53,447.39l.85-.14Z" transform="translate(-372.11 -372.12)"/><path class="cls-8" d="M489.19,447.25l.85.14Z" transform="translate(-372.11 -372.12)"/><path class="cls-8" d="M408.66,447.53l.85-.14Z" transform="translate(-372.11 -372.12)"/><path class="cls-8" d="M490.05,447.39l.85.14Z" transform="translate(-372.11 -372.12)"/><path class="cls-8" d="M407.8,447.67l.85-.14Z" transform="translate(-372.11 -372.12)"/><path class="cls-8" d="M490.92,447.53l.85.14Z" transform="translate(-372.11 -372.12)"/><path class="cls-8" d="M406.93,447.82l.85-.14Z" transform="translate(-372.11 -372.12)"/><path class="cls-8" d="M491.78,447.68l.85.14Z" transform="translate(-372.11 -372.12)"/><path class="cls-8" d="M406.07,448l.85-.14Z" transform="translate(-372.11 -372.12)"/><path class="cls-8" d="M492.65,447.82l.85.14Z" transform="translate(-372.11 -372.12)"/><path class="cls-8" d="M405.21,448.11l.85-.14Z" transform="translate(-372.11 -372.12)"/><path class="cls-8" d="M493.51,448l.85.14Z" transform="translate(-372.11 -372.12)"/><path class="cls-8" d="M404.34,448.25l.85-.14Z" transform="translate(-372.11 -372.12)"/><path class="cls-8" d="M494.38,448.11l.85.14Z" transform="translate(-372.11 -372.12)"/><path class="cls-8" d="M403.48,448.39l.85-.14Z" transform="translate(-372.11 -372.12)"/><path class="cls-8" d="M495.24,448.25l.85.14Z" transform="translate(-372.11 -372.12)"/><path class="cls-8" d="M402.61,448.54l.85-.14Z" transform="translate(-372.11 -372.12)"/><path class="cls-8" d="M496.11,448.4l.85.14Z" transform="translate(-372.11 -372.12)"/><path class="cls-8" d="M424.35,444.93l.73-.13Z" transform="translate(-372.11 -372.12)"/><path class="cls-8" d="M473.63,444.66l.72.13Z" transform="translate(-372.11 -372.12)"/><path class="cls-8" d="M425.22,444.79l.73-.13Z" transform="translate(-372.11 -372.12)"/><path class="cls-8" d="M469.3,443.94l.73.12Z" transform="translate(-372.11 -372.12)"/><path class="cls-8" d="M429.54,444.07l.73-.12Z" transform="translate(-372.11 -372.12)"/><path class="cls-8" d="M468.43,443.8l.73.12Z" transform="translate(-372.11 -372.12)"/><path class="cls-8" d="M430.4,443.92l.73-.12Z" transform="translate(-372.11 -372.12)"/><path class="cls-8" d="M467.57,443.66l.73.12Z" transform="translate(-372.11 -372.12)"/><path class="cls-8" d="M431.27,443.78l.73-.12Z" transform="translate(-372.11 -372.12)"/><path class="cls-8" d="M466.71,443.51l.73.12Z" transform="translate(-372.11 -372.12)"/><path class="cls-8" d="M432.13,443.64l.73-.12Z" transform="translate(-372.11 -372.12)"/><path class="cls-8" d="M465.84,443.37l.73.12Z" transform="translate(-372.11 -372.12)"/><path class="cls-8" d="M433,443.49l.74-.12Z" transform="translate(-372.11 -372.12)"/><path class="cls-8" d="M465,443.22l.73.12Z" transform="translate(-372.11 -372.12)"/><path class="cls-8" d="M472.76,444.52l.72.13Z" transform="translate(-372.11 -372.12)"/><path class="cls-8" d="M433.86,443.35l.73-.12Z" transform="translate(-372.11 -372.12)"/><path class="cls-8" d="M464.11,443.08l.73.12Z" transform="translate(-372.11 -372.12)"/><path class="cls-8" d="M426.08,444.64l.72-.13Z" transform="translate(-372.11 -372.12)"/><path class="cls-8" d="M434.72,443.2l.73-.12Z" transform="translate(-372.11 -372.12)"/><path class="cls-8" d="M463.25,442.94l.73.12Z" transform="translate(-372.11 -372.12)"/><path class="cls-8" d="M435.59,443.06l.73-.12Z" transform="translate(-372.11 -372.12)"/><path class="cls-8" d="M462.38,442.79l.74.12Z" transform="translate(-372.11 -372.12)"/><path class="cls-8" d="M436.45,442.92l.74-.12Z" transform="translate(-372.11 -372.12)"/><path class="cls-8" d="M471.89,444.37l.73.12Z" transform="translate(-372.11 -372.12)"/><path class="cls-8" d="M426.95,444.5l.73-.12Z" transform="translate(-372.11 -372.12)"/><path class="cls-8" d="M471,444.23l.73.12Z" transform="translate(-372.11 -372.12)"/><path class="cls-8" d="M427.81,444.35l.73-.13Z" transform="translate(-372.11 -372.12)"/><path class="cls-8" d="M470.16,444.09l.73.12Z" transform="translate(-372.11 -372.12)"/><path class="cls-8" d="M428.67,444.21l.73-.12Z" transform="translate(-372.11 -372.12)"/><path class="cls-8" d="M414.85,446.51l.72-.13Z" transform="translate(-372.11 -372.12)"/><path class="cls-8" d="M484,446.38l.72.13Z" transform="translate(-372.11 -372.12)"/><path class="cls-8" d="M414,446.66l.72-.13Z" transform="translate(-372.11 -372.12)"/><path class="cls-8" d="M484.87,446.53l.71.13Z" transform="translate(-372.11 -372.12)"/><path class="cls-8" d="M413.12,446.8l.72-.13Z" transform="translate(-372.11 -372.12)"/><path class="cls-8" d="M485.73,446.67l.71.13Z" transform="translate(-372.11 -372.12)"/><path class="cls-8" d="M412.26,446.95l.72-.13Z" transform="translate(-372.11 -372.12)"/><path class="cls-8" d="M486.6,446.82l.72.13Z" transform="translate(-372.11 -372.12)"/><path class="cls-8" d="M483.14,446.24l.72.13Z" transform="translate(-372.11 -372.12)"/><path class="cls-8" d="M415.71,446.37l.72-.13Z" transform="translate(-372.11 -372.12)"/><path class="cls-8" d="M482.27,446.1l.72.13Z" transform="translate(-372.11 -372.12)"/><path class="cls-8" d="M416.58,446.22l.72-.13Z" transform="translate(-372.11 -372.12)"/><path class="cls-8" d="M481.41,446l.72.13Z" transform="translate(-372.11 -372.12)"/><path class="cls-8" d="M417.44,446.08l.72-.13Z" transform="translate(-372.11 -372.12)"/><path class="cls-8" d="M480.54,445.81l.72.13Z" transform="translate(-372.11 -372.12)"/><path class="cls-8" d="M418.3,445.94l.72-.13Z" transform="translate(-372.11 -372.12)"/><path class="cls-8" d="M479.68,445.67l.72.13Z" transform="translate(-372.11 -372.12)"/><path class="cls-8" d="M419.17,445.79l.72-.13Z" transform="translate(-372.11 -372.12)"/><path class="cls-8" d="M478.81,445.52l.72.13Z" transform="translate(-372.11 -372.12)"/><path class="cls-8" d="M420,445.65l.72-.13Z" transform="translate(-372.11 -372.12)"/><path class="cls-8" d="M477.95,445.38l.72.13Z" transform="translate(-372.11 -372.12)"/><path class="cls-8" d="M420.9,445.51l.72-.13Z" transform="translate(-372.11 -372.12)"/><path class="cls-8" d="M477.08,445.24l.72.13Z" transform="translate(-372.11 -372.12)"/><path class="cls-8" d="M421.76,445.36l.72-.13Z" transform="translate(-372.11 -372.12)"/><path class="cls-8" d="M476.22,445.09l.72.13Z" transform="translate(-372.11 -372.12)"/><path class="cls-8" d="M422.63,445.22l.72-.13Z" transform="translate(-372.11 -372.12)"/><path class="cls-8" d="M475.35,444.95l.72.13Z" transform="translate(-372.11 -372.12)"/><path class="cls-8" d="M423.49,445.07l.72-.13Z" transform="translate(-372.11 -372.12)"/><path class="cls-8" d="M474.49,444.8l.73.13Z" transform="translate(-372.11 -372.12)"/><path class="cls-9" d="M416.63,459.65c1,0,2-.05,3,0a2.08,2.08,0,0,1,0,4.16c-1,.07-2,0-3,0Z" transform="translate(-372.11 -372.12)"/><path class="cls-9" d="M491.94,464.53h-3.82l.91-2.1,1-2.23c.37.8.68,1.48,1,2.16S491.61,463.76,491.94,464.53Z" transform="translate(-372.11 -372.12)"/><path class="cls-9" d="M466.34,490.49a1.32,1.32,0,0,1-1.82,1.46,1,1,0,0,1-.49-.68.89.89,0,0,1,.56-.62A11.87,11.87,0,0,1,466.34,490.49Z" transform="translate(-372.11 -372.12)"/><path class="cls-9" d="M445,488.43a1.74,1.74,0,0,1,1.67,1.73A1.8,1.8,0,0,1,445,492a1.71,1.71,0,0,1-1.67-1.78A1.67,1.67,0,0,1,445,488.43Z" transform="translate(-372.11 -372.12)"/></svg>